<?xml version="1.0" encoding="utf-8" standalone="no"?>
<!DOCTYPE svg PUBLIC "-//W3C//DTD SVG 1.1//EN"
  "http://www.w3.org/Graphics/SVG/1.1/DTD/svg11.dtd">
<svg xmlns:xlink="http://www.w3.org/1999/xlink" width="510.614891pt" height="329.17284pt" viewBox="0 0 510.614891 329.17284" xmlns="http://www.w3.org/2000/svg" version="1.1">
 <metadata>
  <rdf:RDF xmlns:dc="http://purl.org/dc/elements/1.1/" xmlns:cc="http://creativecommons.org/ns#" xmlns:rdf="http://www.w3.org/1999/02/22-rdf-syntax-ns#">
   <cc:Work>
    <dc:type rdf:resource="http://purl.org/dc/dcmitype/StillImage"/>
    <dc:date>2026-05-12T10:32:06.837430</dc:date>
    <dc:format>image/svg+xml</dc:format>
    <dc:creator>
     <cc:Agent>
      <dc:title>Matplotlib v3.10.9, https://matplotlib.org/</dc:title>
     </cc:Agent>
    </dc:creator>
   </cc:Work>
  </rdf:RDF>
 </metadata>
 <defs>
  <style type="text/css">*{stroke-linejoin: round; stroke-linecap: butt}</style>
 </defs>
 <g id="figure_1">
  <g id="patch_1">
   <path d="M 0 329.17284 
L 510.614891 329.17284 
L 510.614891 0 
L 0 0 
z
" style="fill: #ffffff"/>
  </g>
  <g id="axes_1">
   <g id="patch_2">
    <path d="M 42.272891 296.703855 
L 367.784891 296.703855 
L 367.784891 28.736145 
L 42.272891 28.736145 
z
" style="fill: #eaf3f8"/>
   </g>
   <g id="patch_3">
    <path d="M 42.272891 171.093991 
L 42.272891 154.346009 
L 43.3325 138.644776 
L 45.451719 123.990292 
L 48.630547 110.382556 
L 52.868984 97.82157 
L 58.167031 86.307332 
L 64.524688 75.839844 
L 71.941953 66.419104 
L 80.418828 58.045113 
L 89.955312 50.717871 
L 100.551406 44.437378 
L 112.207109 39.203633 
L 124.922422 35.016638 
L 138.697344 31.876391 
L 153.531875 29.782893 
L 169.426016 28.736145 
L 186.379766 28.736145 
L 202.358675 28.859291 
L 217.362744 29.105585 
L 231.391972 29.475026 
L 244.446359 29.967614 
L 256.525906 30.583348 
L 267.630613 31.32223 
L 277.760478 32.184258 
L 286.915503 33.169434 
L 295.095688 34.277756 
L 302.301031 35.509225 
L 308.531534 36.863842 
L 313.787197 38.341605 
L 318.068019 39.942515 
L 321.374 41.666572 
L 323.705141 43.513776 
L 325.061441 45.484126 
L 326.460125 47.454477 
L 327.901194 49.424828 
L 329.384647 51.395179 
L 330.910484 53.36553 
L 332.478706 55.335881 
L 334.089313 57.306231 
L 335.742303 59.276582 
L 337.437678 61.246933 
L 339.175438 63.217284 
L 340.955581 65.187635 
L 342.778109 67.157985 
L 344.643022 69.128336 
L 346.550319 71.098687 
L 348.5 73.069038 
L 350.492066 75.039389 
L 352.526516 77.009739 
L 354.433813 79.103237 
L 356.213956 81.319882 
L 357.866947 83.659674 
L 359.392784 86.122612 
L 360.791469 88.708697 
L 362.063 91.41793 
L 363.207378 94.250309 
L 364.224603 97.205835 
L 365.114675 100.284509 
L 365.877594 103.486329 
L 366.513359 106.811296 
L 367.021972 110.25941 
L 367.403431 113.83067 
L 367.657738 117.525078 
L 367.784891 121.342633 
L 367.784891 125.283334 
L 367.657738 129.162463 
L 367.403431 132.980017 
L 367.021972 136.735999 
L 366.513359 140.430406 
L 365.877594 144.063241 
L 365.114675 147.634502 
L 364.224603 151.144189 
L 363.207378 154.592303 
L 362.063 157.978843 
L 360.791469 161.30381 
L 359.392784 164.567204 
L 357.866947 167.769024 
L 356.213956 170.909271 
L 354.433813 173.987944 
L 352.526516 177.005043 
L 350.492066 179.96057 
L 348.521192 182.823736 
L 346.613895 185.594542 
L 344.770175 188.272987 
L 342.990031 190.859073 
L 341.273464 193.352798 
L 339.620473 195.754163 
L 338.031059 198.063168 
L 336.505222 200.279812 
L 335.042961 202.404097 
L 333.644277 204.436021 
L 332.309169 206.375585 
L 331.037638 208.222789 
L 329.829683 209.977633 
L 328.685305 211.640116 
L 327.604503 213.21024 
L 326.587278 214.688003 
L 325.591245 216.165766 
L 324.616405 217.643529 
L 323.662756 219.121292 
L 322.7303 220.599055 
L 321.819036 222.076818 
L 320.928964 223.554581 
L 320.060084 225.032345 
L 319.212397 226.510108 
L 318.385902 227.987871 
L 317.580598 229.465634 
L 316.796488 230.943397 
L 316.033569 232.42116 
L 315.291842 233.898923 
L 314.571308 235.376686 
L 313.871966 236.854449 
L 313.193816 238.332213 
L 312.579242 239.871549 
L 312.028245 241.472459 
L 311.540825 243.134943 
L 311.116981 244.859 
L 310.756714 246.64463 
L 310.460023 248.491834 
L 310.226909 250.400611 
L 310.057372 252.370962 
L 309.951411 254.402886 
L 309.909027 256.496384 
L 309.930219 258.651455 
L 310.014988 260.8681 
L 310.163333 263.146318 
L 310.375255 265.48611 
L 310.650753 267.887475 
L 310.989828 270.350413 
L 311.307711 272.690205 
L 311.604402 274.90685 
L 311.8799 277.000347 
L 312.134206 278.970698 
L 312.36732 280.817902 
L 312.579242 282.541959 
L 312.769972 284.142869 
L 312.939509 285.620632 
L 313.087855 286.975248 
L 313.215008 288.206718 
L 313.320969 289.31504 
L 313.405737 290.300215 
L 313.469314 291.162244 
L 313.511698 291.901125 
L 313.532891 292.51686 
L 313.532891 293.009448 
L 313.278584 293.471249 
L 312.769972 293.902263 
L 312.007053 294.30249 
L 310.989828 294.671931 
L 309.718297 295.010585 
L 308.192459 295.318453 
L 306.412316 295.595533 
L 304.377866 295.841827 
L 302.089109 296.057334 
L 299.546047 296.242055 
L 296.748678 296.395988 
L 293.697003 296.519135 
L 290.391022 296.611495 
L 286.830734 296.673069 
L 283.016141 296.703855 
L 278.947241 296.703855 
L 275.06907 296.642282 
L 271.38163 296.519135 
L 267.884919 296.334415 
L 264.578938 296.088121 
L 261.463686 295.780254 
L 258.539164 295.410813 
L 255.805372 294.979799 
L 253.262309 294.487211 
L 250.909977 293.93305 
L 248.748373 293.317315 
L 246.7775 292.640007 
L 244.997356 291.901125 
L 243.407942 291.10067 
L 242.009258 290.238642 
L 240.801303 289.31504 
L 239.784078 288.329865 
L 238.766853 287.437049 
L 237.749628 286.636594 
L 236.732403 285.928499 
L 235.715178 285.312765 
L 234.697953 284.78939 
L 233.680728 284.358376 
L 232.663503 284.019722 
L 231.646278 283.773428 
L 230.629053 283.619495 
L 229.611828 283.557921 
L 228.594603 283.588708 
L 227.577378 283.711855 
L 226.560153 283.927362 
L 225.542928 284.235229 
L 224.525703 284.635457 
L 223.508478 285.128044 
L 221.87668 285.620632 
L 219.630308 286.11322 
L 216.769363 286.605808 
L 213.293844 287.098395 
L 209.203752 287.590983 
L 204.499086 288.083571 
L 199.179847 288.576158 
L 193.246034 289.068746 
L 186.697648 289.561334 
L 179.534689 290.053921 
L 171.757156 290.546509 
L 163.36505 291.039097 
L 154.35837 291.531685 
L 144.737117 292.024272 
L 134.501291 292.51686 
L 123.650891 293.009448 
L 113.478641 293.471249 
L 103.984541 293.902263 
L 95.168591 294.30249 
L 87.030791 294.671931 
L 79.571141 295.010585 
L 72.789641 295.318453 
L 66.686291 295.595533 
L 61.261091 295.841827 
L 56.514041 296.057334 
L 52.445141 296.242055 
L 49.054391 296.395988 
L 46.341791 296.519135 
L 44.307341 296.611495 
L 42.951041 296.673069 
L 42.272891 296.703855 
L 42.272891 296.703855 
L 42.272891 295.657107 
L 42.272891 293.563609 
L 42.272891 290.423362 
L 42.272891 286.236367 
L 42.272891 281.002622 
L 42.272891 274.722129 
L 42.272891 267.394887 
L 42.272891 259.020896 
L 42.272891 249.600156 
L 42.272891 239.132668 
L 42.272891 227.61843 
L 42.272891 215.057444 
L 42.272891 201.449708 
L 42.272891 186.795224 
z
" clip-path="url(#p4adb470b31)" style="fill: #faf7f0; stroke: #888888; stroke-width: 0.6; stroke-linejoin: miter"/>
   </g>
   <g id="matplotlib.axis_1">
    <g id="xtick_1">
     <g id="line2d_1">
      <path d="M 42.272891 296.703855 
L 42.272891 28.736145 
" clip-path="url(#p4adb470b31)" style="fill: none; stroke-dasharray: 0.3,0.495; stroke-dashoffset: 0; stroke: #bfbfbf; stroke-width: 0.3"/>
     </g>
     <g id="line2d_2">
      <defs>
       <path id="m1b7e3a13bd" d="M 0 0 
L 0 3.5 
" style="stroke: #000000; stroke-width: 0.8"/>
      </defs>
      <g>
       <use xlink:href="#m1b7e3a13bd" x="42.272891" y="296.703855" style="stroke: #000000; stroke-width: 0.8"/>
      </g>
     </g>
     <g id="text_1">
      <text style="font-size: 7.5px; font-family: 'Arial', 'Helvetica', 'DejaVu Sans', 'Liberation Sans', sans-serif; text-anchor: middle" x="42.272891" y="309.072215" transform="rotate(-0 42.272891 309.072215)">105°E</text>
     </g>
    </g>
    <g id="xtick_2">
     <g id="line2d_3">
      <path d="M 96.524891 296.703855 
L 96.524891 28.736145 
" clip-path="url(#p4adb470b31)" style="fill: none; stroke-dasharray: 0.3,0.495; stroke-dashoffset: 0; stroke: #bfbfbf; stroke-width: 0.3"/>
     </g>
     <g id="line2d_4">
      <g>
       <use xlink:href="#m1b7e3a13bd" x="96.524891" y="296.703855" style="stroke: #000000; stroke-width: 0.8"/>
      </g>
     </g>
     <g id="text_2">
      <text style="font-size: 7.5px; font-family: 'Arial', 'Helvetica', 'DejaVu Sans', 'Liberation Sans', sans-serif; text-anchor: middle" x="96.524891" y="309.072215" transform="rotate(-0 96.524891 309.072215)">110°E</text>
     </g>
    </g>
    <g id="xtick_3">
     <g id="line2d_5">
      <path d="M 150.776891 296.703855 
L 150.776891 28.736145 
" clip-path="url(#p4adb470b31)" style="fill: none; stroke-dasharray: 0.3,0.495; stroke-dashoffset: 0; stroke: #bfbfbf; stroke-width: 0.3"/>
     </g>
     <g id="line2d_6">
      <g>
       <use xlink:href="#m1b7e3a13bd" x="150.776891" y="296.703855" style="stroke: #000000; stroke-width: 0.8"/>
      </g>
     </g>
     <g id="text_3">
      <text style="font-size: 7.5px; font-family: 'Arial', 'Helvetica', 'DejaVu Sans', 'Liberation Sans', sans-serif; text-anchor: middle" x="150.776891" y="309.072215" transform="rotate(-0 150.776891 309.072215)">115°E</text>
     </g>
    </g>
    <g id="xtick_4">
     <g id="line2d_7">
      <path d="M 205.028891 296.703855 
L 205.028891 28.736145 
" clip-path="url(#p4adb470b31)" style="fill: none; stroke-dasharray: 0.3,0.495; stroke-dashoffset: 0; stroke: #bfbfbf; stroke-width: 0.3"/>
     </g>
     <g id="line2d_8">
      <g>
       <use xlink:href="#m1b7e3a13bd" x="205.028891" y="296.703855" style="stroke: #000000; stroke-width: 0.8"/>
      </g>
     </g>
     <g id="text_4">
      <text style="font-size: 7.5px; font-family: 'Arial', 'Helvetica', 'DejaVu Sans', 'Liberation Sans', sans-serif; text-anchor: middle" x="205.028891" y="309.072215" transform="rotate(-0 205.028891 309.072215)">120°E</text>
     </g>
    </g>
    <g id="xtick_5">
     <g id="line2d_9">
      <path d="M 259.280891 296.703855 
L 259.280891 28.736145 
" clip-path="url(#p4adb470b31)" style="fill: none; stroke-dasharray: 0.3,0.495; stroke-dashoffset: 0; stroke: #bfbfbf; stroke-width: 0.3"/>
     </g>
     <g id="line2d_10">
      <g>
       <use xlink:href="#m1b7e3a13bd" x="259.280891" y="296.703855" style="stroke: #000000; stroke-width: 0.8"/>
      </g>
     </g>
     <g id="text_5">
      <text style="font-size: 7.5px; font-family: 'Arial', 'Helvetica', 'DejaVu Sans', 'Liberation Sans', sans-serif; text-anchor: middle" x="259.280891" y="309.072215" transform="rotate(-0 259.280891 309.072215)">125°E</text>
     </g>
    </g>
    <g id="xtick_6">
     <g id="line2d_11">
      <path d="M 313.532891 296.703855 
L 313.532891 28.736145 
" clip-path="url(#p4adb470b31)" style="fill: none; stroke-dasharray: 0.3,0.495; stroke-dashoffset: 0; stroke: #bfbfbf; stroke-width: 0.3"/>
     </g>
     <g id="line2d_12">
      <g>
       <use xlink:href="#m1b7e3a13bd" x="313.532891" y="296.703855" style="stroke: #000000; stroke-width: 0.8"/>
      </g>
     </g>
     <g id="text_6">
      <text style="font-size: 7.5px; font-family: 'Arial', 'Helvetica', 'DejaVu Sans', 'Liberation Sans', sans-serif; text-anchor: middle" x="313.532891" y="309.072215" transform="rotate(-0 313.532891 309.072215)">130°E</text>
     </g>
    </g>
    <g id="xtick_7">
     <g id="line2d_13">
      <path d="M 367.784891 296.703855 
L 367.784891 28.736145 
" clip-path="url(#p4adb470b31)" style="fill: none; stroke-dasharray: 0.3,0.495; stroke-dashoffset: 0; stroke: #bfbfbf; stroke-width: 0.3"/>
     </g>
     <g id="line2d_14">
      <g>
       <use xlink:href="#m1b7e3a13bd" x="367.784891" y="296.703855" style="stroke: #000000; stroke-width: 0.8"/>
      </g>
     </g>
     <g id="text_7">
      <text style="font-size: 7.5px; font-family: 'Arial', 'Helvetica', 'DejaVu Sans', 'Liberation Sans', sans-serif; text-anchor: middle" x="367.784891" y="309.072215" transform="rotate(-0 367.784891 309.072215)">135°E</text>
     </g>
    </g>
    <g id="text_8">
     <text style="font-size: 8px; font-family: 'Arial', 'Helvetica', 'DejaVu Sans', 'Liberation Sans', sans-serif; text-anchor: middle" x="205.028891" y="320.28909" transform="rotate(-0 205.028891 320.28909)">Longitude</text>
    </g>
   </g>
   <g id="matplotlib.axis_2">
    <g id="ytick_1">
     <g id="line2d_15">
      <path d="M 42.272891 265.178242 
L 367.784891 265.178242 
" clip-path="url(#p4adb470b31)" style="fill: none; stroke-dasharray: 0.3,0.495; stroke-dashoffset: 0; stroke: #bfbfbf; stroke-width: 0.3"/>
     </g>
     <g id="line2d_16">
      <defs>
       <path id="m46fd336ba5" d="M 0 0 
L -3.5 0 
" style="stroke: #000000; stroke-width: 0.8"/>
      </defs>
      <g>
       <use xlink:href="#m46fd336ba5" x="42.272891" y="265.178242" style="stroke: #000000; stroke-width: 0.8"/>
      </g>
     </g>
     <g id="text_9">
      <text style="font-size: 7.5px; font-family: 'Arial', 'Helvetica', 'DejaVu Sans', 'Liberation Sans', sans-serif; text-anchor: end" x="35.272891" y="267.862422" transform="rotate(-0 35.272891 267.862422)">40°N</text>
     </g>
    </g>
    <g id="ytick_2">
     <g id="line2d_17">
      <path d="M 42.272891 186.36421 
L 367.784891 186.36421 
" clip-path="url(#p4adb470b31)" style="fill: none; stroke-dasharray: 0.3,0.495; stroke-dashoffset: 0; stroke: #bfbfbf; stroke-width: 0.3"/>
     </g>
     <g id="line2d_18">
      <g>
       <use xlink:href="#m46fd336ba5" x="42.272891" y="186.36421" style="stroke: #000000; stroke-width: 0.8"/>
      </g>
     </g>
     <g id="text_10">
      <text style="font-size: 7.5px; font-family: 'Arial', 'Helvetica', 'DejaVu Sans', 'Liberation Sans', sans-serif; text-anchor: end" x="35.272891" y="189.048389" transform="rotate(-0 35.272891 189.048389)">45°N</text>
     </g>
    </g>
    <g id="ytick_3">
     <g id="line2d_19">
      <path d="M 42.272891 107.550177 
L 367.784891 107.550177 
" clip-path="url(#p4adb470b31)" style="fill: none; stroke-dasharray: 0.3,0.495; stroke-dashoffset: 0; stroke: #bfbfbf; stroke-width: 0.3"/>
     </g>
     <g id="line2d_20">
      <g>
       <use xlink:href="#m46fd336ba5" x="42.272891" y="107.550177" style="stroke: #000000; stroke-width: 0.8"/>
      </g>
     </g>
     <g id="text_11">
      <text style="font-size: 7.5px; font-family: 'Arial', 'Helvetica', 'DejaVu Sans', 'Liberation Sans', sans-serif; text-anchor: end" x="35.272891" y="110.234357" transform="rotate(-0 35.272891 110.234357)">50°N</text>
     </g>
    </g>
    <g id="ytick_4">
     <g id="line2d_21">
      <path d="M 42.272891 28.736145 
L 367.784891 28.736145 
" clip-path="url(#p4adb470b31)" style="fill: none; stroke-dasharray: 0.3,0.495; stroke-dashoffset: 0; stroke: #bfbfbf; stroke-width: 0.3"/>
     </g>
     <g id="line2d_22">
      <g>
       <use xlink:href="#m46fd336ba5" x="42.272891" y="28.736145" style="stroke: #000000; stroke-width: 0.8"/>
      </g>
     </g>
     <g id="text_12">
      <text style="font-size: 7.5px; font-family: 'Arial', 'Helvetica', 'DejaVu Sans', 'Liberation Sans', sans-serif; text-anchor: end" x="35.272891" y="31.420324" transform="rotate(-0 35.272891 31.420324)">55°N</text>
     </g>
    </g>
    <g id="text_13">
     <text style="font-size: 8px; font-family: 'Arial', 'Helvetica', 'DejaVu Sans', 'Liberation Sans', sans-serif; text-anchor: middle" x="12.92625" y="162.72" transform="rotate(-90 12.92625 162.72)">Latitude</text>
    </g>
   </g>
   <g id="patch_4">
    <path d="M 42.272891 296.703855 
L 42.272891 28.736145 
" style="fill: none; stroke: #000000; stroke-width: 0.8; stroke-linejoin: miter; stroke-linecap: square"/>
   </g>
   <g id="patch_5">
    <path d="M 367.784891 296.703855 
L 367.784891 28.736145 
" style="fill: none; stroke: #000000; stroke-width: 0.8; stroke-linejoin: miter; stroke-linecap: square"/>
   </g>
   <g id="patch_6">
    <path d="M 42.272891 296.703855 
L 367.784891 296.703855 
" style="fill: none; stroke: #000000; stroke-width: 0.8; stroke-linejoin: miter; stroke-linecap: square"/>
   </g>
   <g id="patch_7">
    <path d="M 42.272891 28.736145 
L 367.784891 28.736145 
" style="fill: none; stroke: #000000; stroke-width: 0.8; stroke-linejoin: miter; stroke-linecap: square"/>
   </g>
   <g id="PatchCollection_1">
    <path d="M 238.393871 229.958222 
L 238.936391 229.465634 
L 239.487388 228.942259 
L 240.046861 228.388098 
L 240.614812 227.80315 
L 241.191239 227.187416 
L 241.776144 226.540894 
L 242.369525 225.863586 
L 242.971383 225.155491 
L 243.581718 224.41661 
L 244.20053 223.646942 
L 244.827819 222.846487 
L 245.463584 222.015245 
L 246.107827 221.153216 
L 246.760546 220.260401 
L 247.421743 219.336799 
L 248.091416 218.382411 
L 248.769566 217.397235 
L 249.447716 216.41206 
L 250.125866 215.426884 
L 250.804016 214.441709 
L 251.482166 213.456534 
L 252.160316 212.471358 
L 252.838466 211.486183 
L 253.516616 210.501007 
L 254.194766 209.515832 
L 254.872916 208.530656 
L 255.551066 207.545481 
L 256.229216 206.560306 
L 256.907366 205.57513 
L 257.585516 204.589955 
L 258.263666 203.604779 
L 258.941816 202.619604 
L 259.619966 201.634429 
L 260.298116 200.649253 
L 260.976266 199.664078 
L 261.654416 198.678902 
L 262.332566 197.693727 
L 263.010716 196.708552 
L 263.688866 195.723376 
L 264.367016 194.738201 
L 265.045166 193.753025 
L 265.723316 192.76785 
L 266.401466 191.782675 
L 267.079616 190.797499 
L 267.757766 189.812324 
L 268.435916 188.827148 
L 269.114066 187.841973 
L 269.792216 186.856797 
L 270.470366 185.871622 
L 271.140039 184.886447 
L 271.801235 183.901271 
L 272.453954 182.916096 
L 273.098197 181.93092 
L 273.733962 180.945745 
L 274.361251 179.96057 
L 274.980063 178.975394 
L 275.590398 177.990219 
L 276.192256 177.005043 
L 276.785638 176.019868 
L 277.370542 175.034693 
L 277.946969 174.049517 
L 278.51492 173.064342 
L 279.074394 172.079166 
L 279.625391 171.093991 
L 280.167911 170.108816 
L 280.685 169.12364 
L 281.176659 168.138465 
L 281.642887 167.153289 
L 282.083684 166.168114 
L 282.499051 165.182939 
L 282.888987 164.197763 
L 283.253493 163.212588 
L 283.592568 162.227412 
L 283.906213 161.242237 
L 284.194426 160.257061 
L 284.457209 159.271886 
L 284.694562 158.286711 
L 284.906484 157.301535 
L 285.092975 156.31636 
L 285.254036 155.331184 
L 285.389666 154.346009 
L 285.495627 153.348519 
L 285.571918 152.338714 
L 285.618541 151.316595 
L 285.635495 150.28216 
L 285.62278 149.235412 
L 285.580395 148.176348 
L 285.508342 147.10497 
L 285.406619 146.021277 
L 285.275228 144.925269 
L 285.114167 143.816947 
L 284.923437 142.69631 
L 284.703039 141.563358 
L 284.452971 140.418092 
L 284.173234 139.260511 
L 283.863828 138.090615 
L 283.524753 136.908404 
L 283.151771 135.769295 
L 282.744881 134.673288 
L 282.304083 133.620381 
L 281.829378 132.610577 
L 281.320766 131.643873 
L 280.778246 130.720271 
L 280.201818 129.839771 
L 279.591483 129.002372 
L 278.947241 128.208074 
L 278.269091 127.456878 
L 277.557033 126.748783 
L 276.811068 126.08379 
L 276.031196 125.461898 
L 275.217416 124.883107 
L 274.369728 124.347418 
L 273.488133 123.85483 
L 272.610777 123.436131 
L 271.737658 123.091319 
L 270.868779 122.820396 
L 270.004138 122.623361 
L 269.143735 122.500214 
L 268.28757 122.450955 
L 267.435644 122.475585 
L 266.587957 122.574102 
L 265.744508 122.746508 
L 264.905297 122.992802 
L 264.070325 123.312984 
L 263.239591 123.707054 
L 262.413096 124.175012 
L 261.590839 124.716859 
L 260.772821 125.332593 
L 259.959041 126.022216 
L 259.162214 126.730311 
L 258.382342 127.456878 
L 257.619423 128.201917 
L 256.873458 128.965428 
L 256.144447 129.747411 
L 255.432389 130.547866 
L 254.737286 131.366793 
L 254.059136 132.204192 
L 253.397939 133.060063 
L 252.753697 133.934406 
L 252.126408 134.827221 
L 251.516073 135.738509 
L 250.922692 136.668268 
L 250.346264 137.616499 
L 249.786791 138.583203 
L 249.244271 139.568378 
L 248.714466 140.553553 
L 248.197377 141.538729 
L 247.693003 142.523904 
L 247.201344 143.50908 
L 246.7224 144.494255 
L 246.256172 145.47943 
L 245.802659 146.464606 
L 245.361862 147.449781 
L 244.93378 148.434957 
L 244.518413 149.420132 
L 244.115761 150.405307 
L 243.725825 151.390483 
L 243.348604 152.375658 
L 242.984098 153.360834 
L 242.632308 154.346009 
L 242.293233 155.331184 
L 241.954158 156.31636 
L 241.615083 157.301535 
L 241.276008 158.286711 
L 240.936933 159.271886 
L 240.597858 160.257061 
L 240.258783 161.242237 
L 239.919708 162.227412 
L 239.580633 163.212588 
L 239.241558 164.197763 
L 238.902483 165.182939 
L 238.563408 166.168114 
L 238.224333 167.153289 
L 237.885258 168.138465 
L 237.546183 169.12364 
L 237.207108 170.108816 
L 236.868033 171.093991 
L 236.533197 172.109953 
L 236.202598 173.156702 
L 235.876239 174.234238 
L 235.554118 175.34256 
L 235.236235 176.481669 
L 234.92259 177.651565 
L 234.613184 178.852247 
L 234.308017 180.083717 
L 234.007088 181.345973 
L 233.710397 182.639015 
L 233.417945 183.962845 
L 233.129731 185.317461 
L 232.845756 186.702864 
L 232.566019 188.119053 
L 232.290521 189.56603 
L 232.019261 191.043793 
L 231.773431 192.490769 
L 231.553033 193.906959 
L 231.358064 195.292362 
L 231.188527 196.646978 
L 231.04442 197.970808 
L 230.925744 199.26385 
L 230.832498 200.526106 
L 230.764683 201.757576 
L 230.722299 202.958258 
L 230.705345 204.128154 
L 230.713822 205.267263 
L 230.747729 206.375585 
L 230.807067 207.453121 
L 230.891836 208.49987 
L 231.002036 209.515832 
L 231.137666 210.501007 
L 231.273296 211.486183 
L 231.408926 212.471358 
L 231.544556 213.456534 
L 231.680186 214.441709 
L 231.815816 215.426884 
L 231.951446 216.41206 
L 232.087076 217.397235 
L 232.222706 218.382411 
L 232.358336 219.367586 
L 232.493966 220.352761 
L 232.629596 221.337937 
L 232.765226 222.323112 
L 232.900856 223.308288 
L 233.036486 224.293463 
L 233.172116 225.278638 
L 233.307746 226.263814 
L 233.468806 227.156629 
L 233.655298 227.957084 
L 233.867219 228.665179 
L 234.104572 229.280914 
L 234.367355 229.804288 
L 234.655569 230.235302 
L 234.969213 230.573956 
L 235.308288 230.82025 
L 235.672794 230.974184 
L 236.06273 231.035757 
L 236.478097 231.00497 
L 236.918894 230.881824 
L 237.385123 230.666316 
L 237.876781 230.358449 
z
" clip-path="url(#p4adb470b31)" style="fill: #b284d8; stroke: #5e3f87; stroke-width: 0.6"/>
    <path d="M 175.020753 125.283334 
L 175.359828 124.495194 
L 175.711618 123.713211 
L 176.076124 122.937386 
L 176.453345 122.167717 
L 176.843281 121.404206 
L 177.245933 120.646853 
L 177.6613 119.895656 
L 178.089382 119.150618 
L 178.530179 118.411736 
L 178.983692 117.679012 
L 179.44992 116.952445 
L 179.928864 116.232035 
L 180.420523 115.517783 
L 180.924897 114.809688 
L 181.441986 114.107751 
L 181.971791 113.411971 
L 182.514311 112.722348 
L 183.073784 112.04504 
L 183.650212 111.380047 
L 184.243593 110.727368 
L 184.853928 110.087004 
L 185.481217 109.458955 
L 186.125459 108.84322 
L 186.786656 108.2398 
L 187.464806 107.648695 
L 188.159909 107.069904 
L 188.871967 106.503428 
L 189.600978 105.949267 
L 190.346943 105.407421 
L 191.109862 104.877889 
L 191.889734 104.360672 
L 192.686561 103.855769 
L 193.500341 103.363182 
L 194.314121 102.901381 
L 195.127901 102.470366 
L 195.941681 102.070139 
L 196.755461 101.700698 
L 197.569241 101.362044 
L 198.383021 101.054177 
L 199.196801 100.777096 
L 200.010581 100.530802 
L 200.824361 100.315295 
L 201.638141 100.130575 
L 202.451921 99.976641 
L 203.265701 99.853494 
L 204.079481 99.761134 
L 204.893261 99.699561 
L 205.707041 99.668774 
L 206.520821 99.668774 
L 207.326124 99.699561 
L 208.12295 99.761134 
L 208.911299 99.853494 
L 209.691172 99.976641 
L 210.462568 100.130575 
L 211.225486 100.315295 
L 211.979928 100.530802 
L 212.725893 100.777096 
L 213.463381 101.054177 
L 214.192392 101.362044 
L 214.912927 101.700698 
L 215.624984 102.070139 
L 216.328565 102.470366 
L 217.023669 102.901381 
L 217.710296 103.363182 
L 218.388446 103.855769 
L 219.036927 104.360672 
L 219.655738 104.877889 
L 220.244881 105.407421 
L 220.804355 105.949267 
L 221.33416 106.503428 
L 221.834295 107.069904 
L 222.304762 107.648695 
L 222.745559 108.2398 
L 223.156688 108.84322 
L 223.538147 109.458955 
L 223.889938 110.087004 
L 224.212059 110.727368 
L 224.504511 111.380047 
L 224.767294 112.04504 
L 225.000408 112.722348 
L 225.203853 113.411971 
L 225.381867 114.095436 
L 225.534451 114.772744 
L 225.661604 115.443895 
L 225.763327 116.108889 
L 225.839619 116.767725 
L 225.89048 117.420403 
L 225.915911 118.066925 
L 225.915911 118.707289 
L 225.89048 119.341495 
L 225.839619 119.969545 
L 225.763327 120.591437 
L 225.661604 121.207171 
L 225.534451 121.816749 
L 225.381867 122.420168 
L 225.203853 123.017431 
L 225.000408 123.608536 
L 224.758817 124.187327 
L 224.47908 124.753803 
L 224.161198 125.307964 
L 223.805169 125.84981 
L 223.410994 126.379342 
L 222.978673 126.896559 
L 222.508207 127.401462 
L 221.999594 127.894049 
L 221.452836 128.374322 
L 220.867932 128.842281 
L 220.244881 129.297924 
L 219.583685 129.741253 
L 218.884343 130.172267 
L 218.146855 130.590967 
L 217.371221 130.997352 
L 216.557441 131.391422 
L 215.71823 131.760863 
L 214.853589 132.105674 
L 213.963517 132.425856 
L 213.048014 132.721409 
L 212.107081 132.992332 
L 211.140717 133.238626 
L 210.148923 133.46029 
L 209.131698 133.657325 
L 208.089043 133.829731 
L 207.020956 133.977507 
L 205.927439 134.100654 
L 204.808492 134.199172 
L 203.664114 134.27306 
L 202.494305 134.322319 
L 201.299066 134.346948 
L 200.078396 134.346948 
L 198.883156 134.340791 
L 197.713348 134.328476 
L 196.568969 134.310004 
L 195.450022 134.285375 
L 194.356505 134.254588 
L 193.288419 134.217644 
L 192.245763 134.174543 
L 191.228538 134.125284 
L 190.236744 134.069868 
L 189.27038 134.008294 
L 188.329447 133.940563 
L 187.413944 133.866675 
L 186.523873 133.78663 
L 185.659231 133.700427 
L 184.820021 133.608067 
L 184.006241 133.509549 
L 183.22213 133.411032 
L 182.467688 133.312514 
L 181.742915 133.213997 
L 181.047811 133.115479 
L 180.382377 133.016961 
L 179.746611 132.918444 
L 179.140514 132.819926 
L 178.564087 132.721409 
L 178.017328 132.622891 
L 177.500239 132.524374 
L 177.012819 132.425856 
L 176.555067 132.327339 
L 176.126985 132.228821 
L 175.728572 132.130304 
L 175.359828 132.031786 
L 175.020753 131.933268 
L 174.724063 131.79165 
L 174.469756 131.606929 
L 174.257834 131.379107 
L 174.088297 131.108184 
L 173.961144 130.794159 
L 173.876375 130.437033 
L 173.833991 130.036806 
L 173.833991 129.593477 
L 173.876375 129.107047 
L 173.961144 128.577515 
L 174.088297 128.004882 
L 174.257834 127.389147 
L 174.469756 126.730311 
L 174.724063 126.028373 
z
" clip-path="url(#p4adb470b31)" style="fill: #b284d8; stroke: #5e3f87; stroke-width: 0.6"/>
    <path d="M 96.185816 212.520617 
L 96.863966 212.225064 
L 97.550592 211.935669 
L 98.245696 211.652431 
L 98.949277 211.37535 
L 99.661334 211.104427 
L 100.381869 210.839661 
L 101.11088 210.581053 
L 101.848368 210.328602 
L 102.594333 210.082308 
L 103.348775 209.842171 
L 104.111694 209.608192 
L 104.883089 209.38037 
L 105.662962 209.158706 
L 106.451311 208.943199 
L 107.248137 208.733849 
L 108.053441 208.530656 
L 108.867221 208.333621 
L 109.685239 208.148901 
L 110.507496 207.976495 
L 111.333991 207.816404 
L 112.164725 207.668628 
L 112.999697 207.533166 
L 113.838908 207.410019 
L 114.682357 207.299187 
L 115.530044 207.20067 
L 116.38197 207.114467 
L 117.238135 207.040579 
L 118.098538 206.979005 
L 118.963179 206.929746 
L 119.832058 206.892802 
L 120.705177 206.868173 
L 121.582533 206.855858 
L 122.464128 206.855858 
L 123.3542 206.849701 
L 124.252749 206.837386 
L 125.159774 206.818914 
L 126.075277 206.794285 
L 126.999256 206.763498 
L 127.931713 206.726554 
L 128.872646 206.683453 
L 129.822056 206.634194 
L 130.779943 206.578778 
L 131.746306 206.517204 
L 132.721147 206.449473 
L 133.704464 206.375585 
L 134.696259 206.29554 
L 135.69653 206.209337 
L 136.705278 206.116977 
L 137.722503 206.018459 
L 138.739728 205.90147 
L 139.756953 205.766008 
L 140.774178 205.612074 
L 141.791403 205.439669 
L 142.808628 205.248791 
L 143.825853 205.039441 
L 144.843078 204.811619 
L 145.860303 204.565325 
L 146.877528 204.30056 
L 147.894753 204.017322 
L 148.911978 203.715612 
L 149.929203 203.39543 
L 150.946428 203.056776 
L 151.963653 202.69965 
L 152.980878 202.324051 
L 153.998103 201.929981 
L 155.002613 201.529754 
L 155.994407 201.123369 
L 156.973486 200.710827 
L 157.93985 200.292127 
L 158.893498 199.86727 
L 159.834432 199.436256 
L 160.762649 198.999084 
L 161.678152 198.555755 
L 162.580939 198.106269 
L 163.471011 197.650626 
L 164.348367 197.188825 
L 165.213009 196.720866 
L 166.064935 196.246751 
L 166.904145 195.766478 
L 167.730641 195.280047 
L 168.544421 194.78746 
L 169.298863 194.282557 
L 169.993966 193.76534 
L 170.629732 193.235808 
L 171.206159 192.693962 
L 171.723249 192.139801 
L 172.181 191.573325 
L 172.579413 190.994534 
L 172.918488 190.403429 
L 173.198225 189.800009 
L 173.418624 189.184274 
L 173.579684 188.556225 
L 173.681407 187.915861 
L 173.723791 187.263182 
L 173.706838 186.598189 
L 173.630546 185.920881 
L 173.494916 185.231258 
L 173.325378 184.597051 
L 173.121933 184.018261 
L 172.884581 183.494886 
L 172.613321 183.026928 
L 172.308153 182.614386 
L 171.969078 182.25726 
L 171.596096 181.95555 
L 171.189206 181.709256 
L 170.748408 181.518378 
L 170.273703 181.382917 
L 169.765091 181.302871 
L 169.222571 181.278242 
L 168.646143 181.309028 
L 168.035808 181.395231 
L 167.391566 181.53685 
L 166.713416 181.733885 
L 166.014073 181.949392 
L 165.293539 182.183372 
L 164.551813 182.435823 
L 163.788894 182.706746 
L 163.004783 182.996141 
L 162.19948 183.304009 
L 161.372984 183.630348 
L 160.525297 183.975159 
L 159.656417 184.338443 
L 158.766345 184.720198 
L 157.855081 185.120426 
L 156.922625 185.539125 
L 155.968977 185.976297 
L 154.994136 186.431941 
L 153.998103 186.906056 
L 152.980878 187.398644 
L 151.963653 187.87276 
L 150.946428 188.328403 
L 149.929203 188.765575 
L 148.911978 189.184274 
L 147.894753 189.584502 
L 146.877528 189.966257 
L 145.860303 190.329541 
L 144.843078 190.674352 
L 143.825853 191.000692 
L 142.808628 191.308559 
L 141.791403 191.597954 
L 140.774178 191.868877 
L 139.756953 192.121329 
L 138.739728 192.355308 
L 137.722503 192.570815 
L 136.705278 192.76785 
L 135.69653 192.964885 
L 134.696259 193.16192 
L 133.704464 193.358955 
L 132.721147 193.55599 
L 131.746306 193.753025 
L 130.779943 193.95006 
L 129.822056 194.147096 
L 128.872646 194.344131 
L 127.931713 194.541166 
L 126.999256 194.738201 
L 126.075277 194.935236 
L 125.159774 195.132271 
L 124.252749 195.329306 
L 123.3542 195.526341 
L 122.464128 195.723376 
L 121.582533 195.920411 
L 120.6967 196.135918 
L 119.806628 196.369898 
L 118.912318 196.622349 
L 118.013769 196.893272 
L 117.110982 197.182667 
L 116.203956 197.490535 
L 115.292692 197.816874 
L 114.377189 198.161685 
L 113.457448 198.524969 
L 112.533469 198.906724 
L 111.605251 199.306952 
L 110.672795 199.725651 
L 109.7361 200.162823 
L 108.795167 200.618466 
L 107.849996 201.092582 
L 106.900586 201.58517 
L 105.976606 202.083915 
L 105.078058 202.588817 
L 104.204939 203.099877 
L 103.357252 203.617094 
L 102.534995 204.140469 
L 101.738169 204.67 
L 100.966773 205.205689 
L 100.220808 205.747536 
L 99.500274 206.29554 
L 98.80517 206.849701 
L 98.135497 207.410019 
L 97.491254 207.976495 
L 96.872443 208.549129 
L 96.279061 209.127919 
L 95.711111 209.712867 
L 95.168591 210.303972 
L 94.702363 210.839661 
L 94.312426 211.319934 
L 93.998782 211.744791 
L 93.761429 212.114232 
L 93.600369 212.428257 
L 93.5156 212.686865 
L 93.507123 212.890058 
L 93.574938 213.037834 
L 93.719045 213.130194 
L 93.939444 213.167138 
L 94.236134 213.148666 
L 94.609117 213.074778 
L 95.058391 212.945474 
L 95.583957 212.760753 
z
" clip-path="url(#p4adb470b31)" style="fill: #b284d8; stroke: #5e3f87; stroke-width: 0.6"/>
   </g>
   <g id="line2d_23">
    <path d="M 226.729691 288.822452 
L 247.052998 244.766639 
L 252.2027 234.329937 
L 258.11532 222.8157 
L 261.357725 216.904647 
L 265.977622 209.023244 
L 270.936594 201.141841 
L 276.234641 193.260438 
L 300.584464 157.701763 
L 304.399058 151.42127 
L 308.022922 144.863696 
L 311.456056 138.029041 
L 314.698461 130.917306 
L 317.750136 123.559278 
L 320.611081 116.170462 
L 323.281297 108.781646 
L 325.760783 101.392831 
L 328.049539 94.004015 
L 330.783331 84.306195 
L 335.233691 68.143161 
L 335.233691 68.143161 
" clip-path="url(#p4adb470b31)" style="fill: none; stroke: #1a1a1a; stroke-width: 1.6; stroke-linecap: round"/>
   </g>
   <g id="line2d_24">
    <path d="M 42.272891 91.787371 
L 42.442428 91.756584 
L 42.781503 91.69501 
L 43.290116 91.60265 
L 43.968266 91.479503 
L 44.815953 91.32557 
L 45.833178 91.140849 
L 47.019941 90.925342 
L 48.376241 90.679048 
L 49.902078 90.401968 
L 51.597453 90.0941 
L 53.462366 89.755446 
L 55.496816 89.386006 
L 57.700803 88.985778 
L 60.074328 88.554764 
L 62.617391 88.092963 
L 65.329991 87.600375 
L 68.042591 87.077001 
L 70.755191 86.52284 
L 73.467791 85.937892 
L 76.180391 85.322157 
L 78.892991 84.675636 
L 81.605591 83.998328 
L 84.318191 83.290233 
L 87.030791 82.551351 
L 89.743391 81.781683 
L 92.455991 80.981228 
L 95.168591 80.149986 
L 97.881191 79.287958 
L 100.593791 78.395142 
L 103.306391 77.47154 
L 106.018991 76.517152 
L 108.731591 75.531976 
L 111.486575 74.577588 
L 114.283944 73.653986 
L 117.123697 72.761171 
L 120.005834 71.899142 
L 122.930356 71.0679 
L 125.897263 70.267445 
L 128.906553 69.497777 
L 131.958228 68.758895 
L 135.052288 68.050801 
L 138.188731 67.373493 
L 141.367559 66.726971 
L 144.588772 66.111237 
L 147.852369 65.526289 
L 151.15835 64.972127 
L 154.506716 64.448753 
L 157.897466 63.956165 
L 161.288216 63.494364 
L 164.678966 63.06335 
L 168.069716 62.663123 
L 171.460466 62.293682 
L 174.851216 61.955028 
L 178.241966 61.64716 
L 181.632716 61.37008 
L 185.023466 61.123786 
L 188.414216 60.908279 
L 191.804966 60.723559 
L 195.195716 60.569625 
L 198.586466 60.446478 
L 201.977216 60.354118 
L 205.367966 60.292544 
L 208.758716 60.261758 
L 212.149466 60.261758 
L 215.540216 60.292544 
L 218.930966 60.354118 
L 222.321716 60.446478 
L 225.712466 60.569625 
L 229.103216 60.723559 
L 232.493966 60.908279 
L 235.884716 61.123786 
L 239.275466 61.37008 
L 242.666216 61.64716 
L 246.056966 61.955028 
L 249.447716 62.293682 
L 252.838466 62.663123 
L 256.229216 63.06335 
L 259.619966 63.494364 
L 263.010716 63.956165 
L 266.401466 64.448753 
L 269.749831 64.941341 
L 273.055813 65.433928 
L 276.319409 65.926516 
L 279.540622 66.419104 
L 282.71945 66.911692 
L 285.855894 67.404279 
L 288.949953 67.896867 
L 292.001628 68.389455 
L 295.010919 68.882042 
L 297.977825 69.37463 
L 300.902347 69.867218 
L 303.784484 70.359805 
L 306.624238 70.852393 
L 309.421606 71.344981 
L 312.176591 71.837569 
L 314.889191 72.330156 
L 317.432253 72.791957 
L 319.805778 73.222972 
L 322.009766 73.623199 
L 324.044216 73.99264 
L 325.909128 74.331294 
L 327.604503 74.639161 
L 329.130341 74.916242 
L 330.486641 75.162536 
L 331.673403 75.378043 
L 332.690628 75.562763 
L 333.538316 75.716697 
L 334.216466 75.839844 
L 334.725078 75.932204 
L 335.064153 75.993777 
L 335.233691 76.024564 
" clip-path="url(#p4adb470b31)" style="fill: none; stroke-dasharray: 9.6,4.8; stroke-dashoffset: 0; stroke: #1a1a1a; stroke-width: 1.6"/>
   </g>
   <g id="line2d_25">
    <path d="M 42.272891 225.771226 
L 42.400044 225.771226 
L 42.65435 225.771226 
L 43.035809 225.771226 
L 43.544422 225.771226 
L 44.180188 225.771226 
L 44.943106 225.771226 
L 45.833178 225.771226 
L 46.850403 225.771226 
L 47.994781 225.771226 
L 49.266313 225.771226 
L 50.664997 225.771226 
L 52.190834 225.771226 
L 53.843825 225.771226 
L 55.623969 225.771226 
L 57.531266 225.771226 
L 59.565716 225.771226 
L 61.64255 225.758911 
L 63.761769 225.734282 
L 65.923372 225.697338 
L 68.127359 225.648079 
L 70.373731 225.586506 
L 72.662487 225.512618 
L 74.993628 225.426415 
L 77.367153 225.327897 
L 79.783063 225.217065 
L 82.241356 225.093918 
L 84.742034 224.958456 
L 87.285097 224.81068 
L 89.870544 224.650589 
L 92.498375 224.478183 
L 95.168591 224.293463 
L 97.881191 224.096428 
L 100.551406 223.911708 
L 103.179237 223.739302 
L 105.764684 223.579211 
L 108.307747 223.431435 
L 110.808425 223.295973 
L 113.266719 223.172826 
L 115.682628 223.061994 
L 118.056153 222.963476 
L 120.387294 222.877273 
L 122.67605 222.803385 
L 124.922422 222.741812 
L 127.126409 222.692553 
L 129.288013 222.655609 
L 131.407231 222.63098 
L 133.484066 222.618665 
L 135.518516 222.618665 
L 137.552966 222.63098 
L 139.587416 222.655609 
L 141.621866 222.692553 
L 143.656316 222.741812 
L 145.690766 222.803385 
L 147.725216 222.877273 
L 149.759666 222.963476 
L 151.794116 223.061994 
L 153.828566 223.172826 
L 155.863016 223.295973 
L 157.897466 223.431435 
L 159.931916 223.579211 
L 161.966366 223.739302 
L 164.000816 223.911708 
L 166.035266 224.096428 
L 168.069716 224.293463 
L 170.104166 224.478183 
L 172.138616 224.650589 
L 174.173066 224.81068 
L 176.207516 224.958456 
L 178.241966 225.093918 
L 180.276416 225.217065 
L 182.310866 225.327897 
L 184.345316 225.426415 
L 186.379766 225.512618 
L 188.414216 225.586506 
L 190.448666 225.648079 
L 192.483116 225.697338 
L 194.517566 225.734282 
L 196.552016 225.758911 
L 198.586466 225.771226 
L 200.620916 225.771226 
L 202.634173 225.802013 
L 204.626239 225.863586 
L 206.597113 225.955947 
L 208.546794 226.079093 
L 210.475283 226.233027 
L 212.38258 226.417747 
L 214.268684 226.633255 
L 216.133597 226.879548 
L 217.977317 227.156629 
L 219.799845 227.464496 
L 221.601181 227.80315 
L 223.381325 228.172591 
L 225.140277 228.572819 
L 226.878036 229.003833 
L 228.594603 229.465634 
L 230.289978 229.958222 
L 231.879392 230.420023 
L 233.362845 230.851037 
L 234.740338 231.251264 
L 236.011869 231.620705 
L 237.177439 231.959359 
L 238.237048 232.267226 
L 239.190697 232.544307 
L 240.038384 232.790601 
L 240.780111 233.006108 
L 241.415877 233.190828 
L 241.945681 233.344762 
L 242.369525 233.467909 
L 242.687408 233.560269 
L 242.89933 233.621843 
L 243.005291 233.652629 
" clip-path="url(#p4adb470b31)" style="fill: none; stroke-dasharray: 9.6,4.8; stroke-dashoffset: 0; stroke: #1a1a1a; stroke-width: 1.6"/>
   </g>
   <g id="patch_8">
    <path d="M 267.101126 192.039274 
Q 270.570439 186.999264 273.469213 182.7881 
" style="fill: none; stroke: #1a1a1a; stroke-width: 0.9; stroke-linecap: round"/>
    <path d="M 270.33685 184.516772 
L 273.469213 182.7881 
L 272.972733 186.331193 
z
" style="fill: #1a1a1a; stroke: #1a1a1a; stroke-width: 0.9; stroke-linecap: round"/>
   </g>
   <g id="patch_9">
    <path d="M 284.011856 196.451953 
Q 280.542542 201.491962 277.643768 205.703126 
" style="fill: none; stroke: #1a1a1a; stroke-width: 0.9; stroke-linecap: round"/>
    <path d="M 280.776131 203.974454 
L 277.643768 205.703126 
L 278.140249 202.160033 
z
" style="fill: #1a1a1a; stroke: #1a1a1a; stroke-width: 0.9; stroke-linecap: round"/>
   </g>
   <g id="patch_10">
    <path d="M 155.662263 56.36017 
L 152.963125 64.672997 
L 159.441056 63.731922 
z
" clip-path="url(#p4adb470b31)" style="fill: #1a1a1a; stroke: #1a1a1a; stroke-width: 0.5; stroke-linejoin: miter"/>
   </g>
   <g id="patch_11">
    <path d="M 134.501291 214.737262 
L 131.246171 222.618665 
L 137.756411 222.618665 
z
" clip-path="url(#p4adb470b31)" style="fill: #1a1a1a; stroke: #1a1a1a; stroke-width: 0.5; stroke-linejoin: miter"/>
   </g>
   <g id="patch_12">
    <path d="M 350.120871 240.09331 
Q 332.520275 221.829678 316.78165 205.49816 
" style="fill: none; stroke: #2b4f8f; stroke-width: 2.4; stroke-linecap: round"/>
    <path d="M 319.18564 213.180662 
L 316.78165 205.49816 
L 324.370045 208.184469 
z
" style="fill: #2b4f8f; stroke: #2b4f8f; stroke-width: 2.4; stroke-linecap: round"/>
   </g>
   <g id="text_14">
    <g id="patch_13">
     <path d="M 313.445628 280.944883 
L 363.334691 280.944883 
L 363.334691 264.203242 
L 313.445628 264.203242 
z
" style="fill: #ffffff"/>
    </g>
    <text style="font-style: italic; font-size: 7.5px; font-family: 'Arial', 'Helvetica', 'DejaVu Sans', 'Liberation Sans', sans-serif; fill: #2b4f8f" transform="translate(314.420628 270.546602)">Palaeo-Pacific</text>
    <text style="font-style: italic; font-size: 7.5px; font-family: 'Arial', 'Helvetica', 'DejaVu Sans', 'Liberation Sans', sans-serif; fill: #2b4f8f" transform="translate(326.085472 278.479258)">subduction</text>
   </g>
   <g id="text_15">
    <g id="patch_14">
     <path d="M 115.742281 46.985452 
L 185.8115 46.985452 
L 185.8115 35.707327 
L 115.742281 35.707327 
z
" style="fill: #ffffff"/>
    </g>
    <text style="font-weight: 700; font-size: 9px; font-family: 'Arial', 'Helvetica', 'DejaVu Sans', 'Liberation Sans', sans-serif; text-anchor: middle; fill: #333333" x="150.776891" y="43.679358" transform="rotate(-0 150.776891 43.679358)">Siberian Craton</text>
   </g>
   <g id="text_16">
    <g id="patch_15">
     <path d="M 114.296403 151.019975 
L 143.855778 151.019975 
L 143.855778 139.74185 
L 114.296403 139.74185 
z
" style="fill: #ffffff"/>
    </g>
    <text style="font-weight: 700; font-size: 9px; font-family: 'Arial', 'Helvetica', 'DejaVu Sans', 'Liberation Sans', sans-serif; text-anchor: middle; fill: #333333" x="129.076091" y="147.713882" transform="rotate(-0 129.076091 147.713882)">CAOB</text>
   </g>
   <g id="text_17">
    <g id="patch_16">
     <path d="M 107.751266 277.122428 
L 193.802516 277.122428 
L 193.802516 265.844303 
L 107.751266 265.844303 
z
" style="fill: #ffffff"/>
    </g>
    <text style="font-weight: 700; font-size: 9px; font-family: 'Arial', 'Helvetica', 'DejaVu Sans', 'Liberation Sans', sans-serif; text-anchor: middle; fill: #333333" x="150.776891" y="273.816334" transform="rotate(-0 150.776891 273.816334)">North China Craton</text>
   </g>
   <g id="text_18">
    <g id="patch_17">
     <path d="M 219.22678 277.689138 
L 277.634202 277.689138 
L 277.634202 268.430154 
L 219.22678 268.430154 
z
" style="fill: #ffffff"/>
    </g>
    <text style="font-style: italic; font-size: 7.5px; font-family: 'Arial', 'Helvetica', 'DejaVu Sans', 'Liberation Sans', sans-serif; text-anchor: middle; fill: #1a1a1a" x="248.430491" y="274.998513" transform="rotate(-0 248.430491 274.998513)">Tanlu Fault Zone</text>
   </g>
   <g id="text_19">
    <g id="patch_18">
     <path d="M 110.18607 57.088362 
L 191.367711 57.088362 
L 191.367711 47.672346 
L 110.18607 47.672346 
z
" style="fill: #ffffff"/>
    </g>
    <text style="font-style: italic; font-size: 7.5px; font-family: 'Arial', 'Helvetica', 'DejaVu Sans', 'Liberation Sans', sans-serif; text-anchor: middle; fill: #1a1a1a" x="150.776891" y="54.332112" transform="rotate(-0 150.776891 54.332112)">Mongol-Okhotsk Suture</text>
   </g>
   <g id="text_20">
    <g id="patch_19">
     <path d="M 73.860833 243.010964 
L 130.039348 243.010964 
L 130.039348 233.751979 
L 73.860833 233.751979 
z
" style="fill: #ffffff"/>
    </g>
    <text style="font-style: italic; font-size: 7.5px; font-family: 'Arial', 'Helvetica', 'DejaVu Sans', 'Liberation Sans', sans-serif; text-anchor: middle; fill: #1a1a1a" x="101.950091" y="240.320339" transform="rotate(-0 101.950091 240.320339)">Solonker Suture</text>
   </g>
   <g id="text_21">
    <g id="patch_20">
     <path d="M 237.645567 180.194507 
L 272.380567 180.194507 
L 272.380567 171.727007 
L 237.645567 171.727007 
z
" style="fill: #ffffff; opacity: 0.55"/>
    </g>
    <text style="font-weight: 700; font-size: 8px; font-family: 'Arial', 'Helvetica', 'DejaVu Sans', 'Liberation Sans', sans-serif; text-anchor: middle; fill: #1a1a1a" x="255.013067" y="178.030757" transform="rotate(-0 255.013067 178.030757)">Songliao</text>
   </g>
   <g id="text_22">
    <g id="patch_21">
     <path d="M 188.598656 123.433133 
L 211.792406 123.433133 
L 211.792406 115.168133 
L 188.598656 115.168133 
z
" style="fill: #ffffff; opacity: 0.55"/>
    </g>
    <text style="font-weight: 700; font-size: 8px; font-family: 'Arial', 'Helvetica', 'DejaVu Sans', 'Liberation Sans', sans-serif; text-anchor: middle; fill: #1a1a1a" x="200.195531" y="121.374383" transform="rotate(-0 200.195531 121.374383)">Hailar</text>
   </g>
   <g id="text_23">
    <g id="patch_22">
     <path d="M 122.405503 202.985703 
L 145.595503 202.985703 
L 145.595503 194.720703 
L 122.405503 194.720703 
z
" style="fill: #ffffff; opacity: 0.55"/>
    </g>
    <text style="font-weight: 700; font-size: 8px; font-family: 'Arial', 'Helvetica', 'DejaVu Sans', 'Liberation Sans', sans-serif; text-anchor: middle; fill: #1a1a1a" x="134.000503" y="200.926953" transform="rotate(-0 134.000503 200.926953)">Erlian</text>
   </g>
   <g id="PathCollection_1">
    <defs>
     <path id="m87b4579db3" d="M 0 -5.91608 
L -1.328243 -1.828169 
L -5.626526 -1.828169 
L -2.149142 0.698298 
L -3.477384 4.786209 
L -0 2.259741 
L 3.477384 4.786209 
L 2.149142 0.698298 
L 5.626526 -1.828169 
L 1.328243 -1.828169 
z
" style="stroke: #400000; stroke-width: 0.6"/>
    </defs>
    <g clip-path="url(#p4adb470b31)">
     <use xlink:href="#m87b4579db3" x="255.013067" y="175.960757" style="fill: #b32020; stroke: #400000; stroke-width: 0.6"/>
    </g>
   </g>
   <g id="PathCollection_2">
    <g clip-path="url(#p4adb470b31)">
     <use xlink:href="#m87b4579db3" x="200.195531" y="119.300633" style="fill: #b32020; stroke: #400000; stroke-width: 0.6"/>
    </g>
   </g>
   <g id="PathCollection_3">
    <g clip-path="url(#p4adb470b31)">
     <use xlink:href="#m87b4579db3" x="134.000503" y="198.853203" style="fill: #b32020; stroke: #400000; stroke-width: 0.6"/>
    </g>
   </g>
   <g id="patch_23">
    <path d="M 58.548491 280.941049 
L 86.949944 280.941049 
L 86.949944 273.847786 
L 58.548491 273.847786 
z
" clip-path="url(#p4adb470b31)" style="fill: #1a1a1a; stroke: #1a1a1a; stroke-width: 0.6; stroke-linejoin: miter"/>
   </g>
   <g id="patch_24">
    <path d="M 86.949944 280.941049 
L 115.351397 280.941049 
L 115.351397 273.847786 
L 86.949944 273.847786 
z
" clip-path="url(#p4adb470b31)" style="fill: #ffffff; stroke: #1a1a1a; stroke-width: 0.6; stroke-linejoin: miter"/>
   </g>
   <g id="patch_25">
    <path d="M 63.973691 52.380354 
L 60.718571 71.295722 
L 63.973691 68.931301 
L 67.228811 71.295722 
z
" clip-path="url(#p4adb470b31)" style="fill: #1a1a1a; stroke: #1a1a1a; stroke-width: 0.6; stroke-linejoin: miter"/>
   </g>
   <g id="text_24">
    <text style="font-size: 7px; font-family: 'Arial', 'Helvetica', 'DejaVu Sans', 'Liberation Sans', sans-serif; text-anchor: middle" x="58.548491" y="294.463433" transform="rotate(-0 58.548491 294.463433)">0</text>
   </g>
   <g id="text_25">
    <text style="font-size: 7px; font-family: 'Arial', 'Helvetica', 'DejaVu Sans', 'Liberation Sans', sans-serif; text-anchor: middle" x="115.351397" y="294.463433" transform="rotate(-0 115.351397 294.463433)">400 km</text>
   </g>
   <g id="text_26">
    <text style="font-weight: 700; font-size: 8px; font-family: 'Arial', 'Helvetica', 'DejaVu Sans', 'Liberation Sans', sans-serif; text-anchor: middle" x="63.973691" y="42.132061" transform="rotate(-0 63.973691 42.132061)">N</text>
   </g>
  </g>
  <g id="axes_2">
   <g id="patch_26">
    <path d="M 380.164211 71.58528 
L 392.740811 71.58528 
L 392.740811 60.69888 
L 380.164211 60.69888 
z
" style="fill: #b284d8; stroke: #5e3f87; stroke-width: 0.6; stroke-linejoin: miter"/>
   </g>
   <g id="PathCollection_4">
    <defs>
     <path id="m283d645e89" d="M 0 -5.244044 
L -1.177361 -1.620499 
L -4.987382 -1.620499 
L -1.905011 0.618975 
L -3.082372 4.242521 
L -0 2.003047 
L 3.082372 4.242521 
L 1.905011 0.618975 
L 4.987382 -1.620499 
L 1.177361 -1.620499 
z
" style="stroke: #400000; stroke-width: 0.6"/>
    </defs>
    <g>
     <use xlink:href="#m283d645e89" x="386.452511" y="80.91648" style="fill: #b32020; stroke: #400000; stroke-width: 0.6"/>
    </g>
   </g>
   <g id="patch_27">
    <path d="M 380.164211 251.98848 
L 392.740811 251.98848 
L 392.740811 241.10208 
L 380.164211 241.10208 
z
" style="fill: #faf7f0; stroke: #888888; stroke-width: 0.6; stroke-linejoin: miter"/>
   </g>
   <g id="patch_28">
    <path d="M 380.164211 269.09568 
L 392.740811 269.09568 
L 392.740811 258.20928 
L 380.164211 258.20928 
z
" style="fill: #eaf3f8; stroke: #888888; stroke-width: 0.6; stroke-linejoin: miter"/>
   </g>
   <g id="line2d_26">
    <path d="M 380.164211 116.064 
L 393.998471 116.064 
" style="fill: none; stroke: #1a1a1a; stroke-width: 1.4; stroke-linecap: round"/>
   </g>
   <g id="line2d_27">
    <path d="M 380.164211 133.1712 
L 393.998471 133.1712 
" style="fill: none; stroke-dasharray: 8.4,4.2; stroke-dashoffset: 0; stroke: #1a1a1a; stroke-width: 1.4"/>
   </g>
   <g id="text_27">
    <text style="font-weight: 700; font-size: 10px; font-family: 'Arial', 'Helvetica', 'DejaVu Sans', 'Liberation Sans', sans-serif; text-anchor: start" x="380.164211" y="36.130612" transform="rotate(-0 380.164211 36.130612)">Legend</text>
   </g>
   <g id="text_28">
    <text style="font-weight: 700; font-size: 8.5px; font-family: 'Arial', 'Helvetica', 'DejaVu Sans', 'Liberation Sans', sans-serif; text-anchor: start" x="380.164211" y="52.786221" transform="rotate(-0 380.164211 52.786221)">Cretaceous basins</text>
   </g>
   <g id="text_29">
    <text style="font-size: 7.8px; font-family: 'Arial', 'Helvetica', 'DejaVu Sans', 'Liberation Sans', sans-serif; text-anchor: start" x="397.771451" y="68.314022" transform="rotate(-0 397.771451 68.314022)">Wide-rift / back-arc</text>
   </g>
   <g id="text_30">
    <text style="font-size: 7.5px; font-family: 'Arial', 'Helvetica', 'DejaVu Sans', 'Liberation Sans', sans-serif; text-anchor: start" x="397.771451" y="82.857105" transform="rotate(-0 397.771451 82.857105)">Case-study basin</text>
   </g>
   <g id="text_31">
    <text style="font-weight: 700; font-size: 8.5px; font-family: 'Arial', 'Helvetica', 'DejaVu Sans', 'Liberation Sans', sans-serif; text-anchor: start" x="380.164211" y="102.552621" transform="rotate(-0 380.164211 102.552621)">Faults / sutures</text>
   </g>
   <g id="text_32">
    <text style="font-size: 7.5px; font-family: 'Arial', 'Helvetica', 'DejaVu Sans', 'Liberation Sans', sans-serif; text-anchor: start" x="397.771451" y="118.004625" transform="rotate(-0 397.771451 118.004625)">Certain (solid)</text>
   </g>
   <g id="text_33">
    <text style="font-size: 7.5px; font-family: 'Arial', 'Helvetica', 'DejaVu Sans', 'Liberation Sans', sans-serif; text-anchor: start" x="397.771451" y="135.111825" transform="rotate(-0 397.771451 135.111825)">Approximate (long-dash)</text>
   </g>
   <g id="text_34">
    <text style="font-weight: 700; font-size: 8.5px; font-family: 'Arial', 'Helvetica', 'DejaVu Sans', 'Liberation Sans', sans-serif; text-anchor: start" x="380.164211" y="150.763821" transform="rotate(-0 380.164211 150.763821)">Kinematic indicator</text>
   </g>
   <g id="text_35">
    <text style="font-size: 7.5px; font-family: 'Arial', 'Helvetica', 'DejaVu Sans', 'Liberation Sans', sans-serif" transform="translate(383.937191 170.265639)">→  ←   sinistral</text>
    <text style="font-size: 7.5px; font-family: 'Arial', 'Helvetica', 'DejaVu Sans', 'Liberation Sans', sans-serif" transform="translate(383.937191 180.345639)">▲       thrust / suture</text>
   </g>
   <g id="text_36">
    <text style="font-weight: 700; font-size: 8.5px; font-family: 'Arial', 'Helvetica', 'DejaVu Sans', 'Liberation Sans', sans-serif; text-anchor: start" x="380.164211" y="195.864621" transform="rotate(-0 380.164211 195.864621)">Plate motion</text>
   </g>
   <g id="patch_29">
    <path d="M 382.167071 209.376 
Q 387.081897 209.376 389.537048 209.376 
" style="fill: none; stroke: #2b4f8f; stroke-width: 2.2; stroke-linecap: round"/>
    <path d="M 383.937048 206.576 
L 389.537048 209.376 
L 383.937048 212.176 
z
" style="fill: #2b4f8f; stroke: #2b4f8f; stroke-width: 2.2; stroke-linecap: round"/>
   </g>
   <g id="text_37">
    <text style="font-size: 7.5px; font-family: 'Arial', 'Helvetica', 'DejaVu Sans', 'Liberation Sans', sans-serif" transform="translate(397.771451 207.348539)">Palaeo-Pacific</text>
    <text style="font-size: 7.5px; font-family: 'Arial', 'Helvetica', 'DejaVu Sans', 'Liberation Sans', sans-serif" transform="translate(397.771451 215.281195)">plate vector</text>
   </g>
   <g id="text_38">
    <text style="font-weight: 700; font-size: 8.5px; font-family: 'Arial', 'Helvetica', 'DejaVu Sans', 'Liberation Sans', sans-serif; text-anchor: start" x="380.164211" y="233.189421" transform="rotate(-0 380.164211 233.189421)">Tectonic units</text>
   </g>
   <g id="text_39">
    <text style="font-size: 7.8px; font-family: 'Arial', 'Helvetica', 'DejaVu Sans', 'Liberation Sans', sans-serif; text-anchor: start" x="397.771451" y="248.71905" transform="rotate(-0 397.771451 248.71905)">Land (continental)</text>
   </g>
   <g id="text_40">
    <text style="font-size: 7.8px; font-family: 'Arial', 'Helvetica', 'DejaVu Sans', 'Liberation Sans', sans-serif; text-anchor: start" x="397.771451" y="265.824422" transform="rotate(-0 397.771451 265.824422)">Ocean / sea</text>
   </g>
   <g id="text_41">
    <text style="font-style: italic; font-size: 7px; font-family: 'Arial', 'Helvetica', 'DejaVu Sans', 'Liberation Sans', sans-serif; fill: #666666" transform="translate(380.164211 301.959325)">FGDC TM 11A02 line styles</text>
    <text style="font-style: italic; font-size: 7px; font-family: 'Arial', 'Helvetica', 'DejaVu Sans', 'Liberation Sans', sans-serif; fill: #666666" transform="translate(380.164211 310.5667)">Okabe-Ito categorical palette</text>
   </g>
  </g>
 </g>
 <defs>
  <clipPath id="p4adb470b31">
   <rect x="42.272891" y="28.736145" width="325.512" height="267.967711"/>
  </clipPath>
 </defs>
</svg>
